<svg viewBox="0 0 512 512" xmlns="http://www.w3.org/2000/svg"><path d="M258.9 507.2C120.4 507.9 6.6 392.6 9.9 252 12.9 118 124 7 262.3 8.7c136.6 1.7 249.4 115.4 245.8 256-3.4 133.5-113.4 243.1-249.2 242.5zM40.2 257.9c.9 122.6 97.9 218.2 214.4 219.9 123.6 1.8 222.8-95.7 223.1-219.5.1-122.7-97.8-218-214.5-220.3-120.1-2.3-222 94.3-223 219.9z"/><path d="M413.2 261.3c0 21.8-.6 43.7.1 65.5 1.5 41.9-28.7 76.9-68.6 86.9-7.8 2-16.1 3.2-24.1 3.3-42.3.3-84.6.7-126.9 0-35.3-.6-63.1-15.6-81.9-46.1-7.2-11.7-10.8-24.7-10.8-38.5-.1-47.5-.5-95 .1-142.4.4-31 15.9-53.9 41.6-70.3 16-10.2 33.7-14.8 52.6-14.8 41.3-.1 82.6-.5 123.9.1 36.4.5 65.2 15.7 83.9 47.7 6.7 11.5 10.1 24.2 10.1 37.7-.1 23.6 0 47.3 0 70.9zm-289.2-.2v68.5c0 9.1 1.7 17.9 6 26 13.8 26 36.4 37.8 64.9 38.2 41.3.6 82.7.3 124 0 7.1 0 14.3-1.2 21.2-3 27.5-7.4 50.9-31.2 50.1-66.1-1-44-.2-88-.2-132 0-9.7-1.8-18.9-6.5-27.4-14.1-25.3-36.6-36.8-64.6-37.2-41.2-.6-82.3-.4-123.5 0-8.2.1-16.6 1.6-24.5 4-26.9 8.3-48.1 32.2-47 64.4.7 21.6.1 43.1.1 64.6z"/><path d="M257.1 183c40.7-.1 73.7 32.4 73.7 72.4-.1 39.8-33 72.3-73.3 72.4-40.6.1-73.5-32.3-73.5-72.5 0-39.9 32.6-72.2 73.1-72.3zm0 23.2c-27.4.1-50 22.4-49.9 49.3s22.6 49 50.2 49.1c27.5 0 50.1-22.1 50.2-49-.1-27.3-22.8-49.5-50.5-49.4zm97.7-29.5c.2 8.5-6.8 16-15.1 16.3-8.5.3-15.8-6.9-15.9-15.8-.1-8.7 6.6-16 14.9-16.3 8.5-.3 15.9 7 16.1 15.8z"/></svg>